<svg width="71" height="41" viewBox="0 0 71 41" fill="none" xmlns="http://www.w3.org/2000/svg">
<path d="M14 28.3901C17.8755 20.8648 24.427 8.67623 28.4871 11.2422C33.5622 14.4498 21.1052 24.319 27.103 28.3901C33.1009 32.4612 38.6373 7.54124 44.0815 11.2422C49.5258 14.9432 38.8219 24.6891 43.0665 28.3901C46.4622 31.3509 52.294 20.954 57 12.9763" stroke="#6500C3" stroke-width="15.8161" stroke-linecap="round"/>
<path d="M37.8413 19.7259C37.8413 21.145 37.492 22.4142 36.9443 23.3179C36.393 24.2276 35.6753 24.7197 34.9416 24.7197C34.208 24.7197 33.4903 24.2276 32.939 23.3179C32.3913 22.4142 32.042 21.145 32.042 19.7259C32.042 18.3069 32.3913 17.0377 32.939 16.134C33.4903 15.2243 34.208 14.7322 34.9416 14.7322C35.6753 14.7322 36.393 15.2243 36.9443 16.134C37.492 17.0377 37.8413 18.3069 37.8413 19.7259Z" fill="white" stroke="#0F172A" stroke-width="0.64436"/>
<path d="M37.8413 19.7259C37.8413 20.6099 37.6188 21.3949 37.2761 21.9484C36.9304 22.5069 36.4949 22.7866 36.0693 22.7866C35.6437 22.7866 35.2081 22.5069 34.8624 21.9484C34.5197 21.3949 34.2973 20.6099 34.2973 19.7259C34.2973 18.8419 34.5197 18.057 34.8624 17.5034C35.2081 16.9449 35.6437 16.6652 36.0693 16.6652C36.4949 16.6652 36.9304 16.9449 37.2761 17.5034C37.6188 18.057 37.8413 18.8419 37.8413 19.7259Z" fill="#0F172A" stroke="#0F172A" stroke-width="0.64436"/>
<path d="M46.218 19.7259C46.218 21.145 45.8687 22.4142 45.321 23.3179C44.7697 24.2276 44.052 24.7197 43.3184 24.7197C42.5847 24.7197 41.8671 24.2276 41.3157 23.3179C40.768 22.4142 40.4187 21.145 40.4187 19.7259C40.4187 18.3069 40.768 17.0377 41.3157 16.134C41.8671 15.2243 42.5847 14.7322 43.3184 14.7322C44.052 14.7322 44.7697 15.2243 45.321 16.134C45.8687 17.0377 46.218 18.3069 46.218 19.7259Z" fill="white" stroke="#0F172A" stroke-width="0.64436"/>
<path d="M46.218 19.7259C46.218 20.6099 45.9955 21.3949 45.6528 21.9484C45.3071 22.5069 44.8716 22.7866 44.446 22.7866C44.0204 22.7866 43.5848 22.5069 43.2391 21.9484C42.8964 21.3949 42.674 20.6099 42.674 19.7259C42.674 18.8419 42.8964 18.057 43.2391 17.5034C43.5848 16.9449 44.0204 16.6652 44.446 16.6652C44.8716 16.6652 45.3071 16.9449 45.6528 17.5034C45.9955 18.057 46.218 18.8419 46.218 19.7259Z" fill="#0F172A" stroke="#0F172A" stroke-width="0.64436"/>
</svg>
